<svg width="1280" height="414" viewBox="0 0 1280 414" fill="none" xmlns="http://www.w3.org/2000/svg">
    <path d="M212.693 356.36C211.137 357.1 208.932 358.076 206.23 359.096C200.989 361.062 194.193 363.607 186.957 364.861C179.722 366.115 172.061 366.075 165.087 362.886C153.181 357.444 148.696 345.303 147.053 340.853C143.97 332.509 144.638 325.235 145.249 318.576C145.431 316.586 145.609 314.652 145.68 312.76C146.294 296.44 147.133 277.895 148.326 257.452L148.356 256.933L148.054 257.356C144.709 262.041 141.254 266.632 137.814 271.206C130.185 281.348 122.624 291.399 116.464 302.166C102.992 325.714 98.1604 350.896 114.023 375.415L114.149 375.333L114.023 375.415C119.103 383.264 125.726 388.893 134.465 396.322C134.856 396.654 135.251 396.99 135.65 397.329C138.793 400.009 141.529 402.178 143.511 403.716C141.955 403.378 139.712 402.848 137.103 402.037L137.058 402.18L137.103 402.037C107.357 392.842 81.6792 364.569 77.1272 332.515C75.4258 320.534 77.1572 311.374 78.5128 304.201L78.5321 304.099C85.0569 269.796 107.654 246.077 111.149 242.485C111.645 241.979 117.95 235.525 125.001 227.975C132.05 220.428 139.856 211.777 143.348 206.881L143.226 206.794L143.348 206.881C144.814 204.824 146.138 202.891 147.333 201.081L147.333 201.08L147.333 201.08L147.335 201.077L147.343 201.064L147.375 201.017L147.497 200.83C147.604 200.667 147.76 200.428 147.958 200.123C148.352 199.513 148.912 198.642 149.572 197.596C150.891 195.503 152.612 192.706 154.214 189.895L154.084 189.821L154.214 189.895C164.483 171.854 169.889 149.114 172.729 130.894C174.149 121.782 174.927 113.797 175.351 108.089C175.563 105.236 175.686 102.951 175.756 101.38C175.791 100.594 175.813 99.987 175.826 99.576C175.833 99.3704 175.837 99.214 175.84 99.1088L175.843 98.9898L175.843 98.9597L175.844 98.9521L175.844 98.9502C175.844 98.9499 175.844 98.9497 175.806 98.9489C175.784 98.9483 175.749 98.9476 175.694 98.9465C175.844 98.9495 175.844 98.9493 175.844 98.9489L175.844 98.9472L175.844 98.9405L175.844 98.9138L175.846 98.8082C175.847 98.715 175.849 98.5762 175.851 98.394C175.855 98.0295 175.858 97.4912 175.856 96.7953C175.854 95.4035 175.834 93.3814 175.762 90.8589C175.619 85.8141 175.273 78.7676 174.456 70.7604C172.824 54.75 169.312 34.8827 161.792 19.4973L161.792 19.497C161.419 18.7374 161.06 17.9747 160.7 17.209C160.491 16.7638 160.281 16.3176 160.068 15.8703L160.067 15.8696C159.526 14.7513 159.079 13.8413 158.715 13.1007C158.323 12.3027 158.028 11.7016 157.816 11.249C157.611 10.8115 157.489 10.5232 157.433 10.3348C157.404 10.2399 157.396 10.1826 157.397 10.1501C157.406 10.1506 157.419 10.1521 157.437 10.156C157.492 10.1685 157.57 10.1996 157.67 10.2542C157.871 10.3628 158.133 10.5475 158.443 10.7935C159.061 11.284 159.846 12.0007 160.663 12.7868C162.295 14.3581 164.041 16.1952 164.808 17.0252C170.299 22.9741 185.654 42.5178 201.089 70.3471C216.523 98.1757 232.031 134.281 237.834 173.353L237.983 173.331L237.834 173.353C238.46 177.551 238.755 180.322 238.956 182.846C239.676 192.253 241.445 219.863 227.18 248.255C224.464 253.657 221.386 259.093 217.668 265.658C217.45 266.044 217.229 266.434 217.006 266.828C212.99 273.922 208.243 282.348 202.44 293.398C199.139 299.675 197.721 305.857 198.349 311.855C198.978 317.853 201.652 323.652 206.513 329.164C215.942 339.856 228.093 341.598 241.492 338.354C255.633 334.931 267.079 327.039 277.813 318.071C278.732 317.303 279.661 316.552 280.638 315.763C281.209 315.303 281.795 314.829 282.405 314.331C279.434 325.573 272.411 345.624 254.862 364.966L254.973 365.066L254.862 364.966C231.453 390.784 203.164 400.11 191.081 403.343C199.55 394.318 209.267 380.699 212.185 362.799C212.54 360.649 212.765 358.554 212.907 356.506L212.925 356.25L212.693 356.36Z"
          fill="url(#paint0_linear_7_8)" stroke="black" stroke-width="0.3"/>
    <path d="M36.1253 267.277C41.2457 256.837 49.0324 244.571 59.4211 228.208H59.4329L59.4771 228.139C62.7954 222.915 65.5315 218.914 68.0308 215.258C72.5536 208.644 76.3006 203.164 81.3175 193.632C90.4905 176.211 95.1601 160.612 97.6814 149.924C99.4693 167.595 96.7708 180.747 94.4274 188.666L94.4274 188.667C92.5515 195.027 90.0615 200.883 88.9751 203.387C85.4216 211.576 82.2387 217.09 76.4155 227.178C76.2624 227.443 76.1075 227.711 75.9507 227.983L76.0807 228.058L75.9507 227.983C73.8809 231.571 72.0898 234.671 70.5595 237.32C66.4568 244.421 64.2288 248.277 63.5306 249.589L63.3877 249.855C53.1062 269.047 42.2273 289.353 44.0067 314.023L44.1563 314.013L44.0067 314.024C44.7879 324.793 47.6404 333.199 48.7769 336.317C52.2642 345.888 56.9619 353.296 60.8827 358.473C60.0191 357.563 58.8864 356.339 57.5634 354.837C54.4683 351.323 50.3325 346.292 46.1644 340.23C37.8253 328.1 29.3706 311.858 28.8403 295.372C28.5519 286.335 30.9992 277.728 36.1253 267.277Z"
          fill="url(#paint1_linear_7_8)" stroke="black" stroke-width="0.3"/>
    <path d="M232.865 305.706C233.703 304.985 234.736 304.075 235.887 303.014L235.887 303.014C240.699 298.574 248.735 291.047 255.611 279.221C262.558 267.283 264.831 256.954 265.388 254.205C265.613 253.121 266.429 248.981 266.82 243.447C267.128 239.089 267.66 226.038 262.418 209.624L262.418 209.624C261.017 205.259 259.149 200.996 258.954 200.552L258.951 200.545C258.951 200.545 258.951 200.545 258.951 200.545C257.726 197.721 256.723 195.746 256.042 194.467C255.829 194.066 255.645 193.73 255.497 193.46C255.413 193.307 255.342 193.175 255.282 193.065C255.439 193.202 255.635 193.385 255.869 193.614C256.477 194.21 257.328 195.107 258.348 196.28C260.388 198.625 263.102 202.068 265.905 206.39C271.511 215.036 277.466 227.196 279.092 241.14L279.241 241.122L279.092 241.14C279.813 247.302 280.895 258.173 275.407 269.939L275.407 269.939C270.073 281.402 261.29 287.886 252.746 294.178L252.746 294.178C245.135 299.798 238.006 303.428 232.865 305.706Z"
          fill="url(#paint2_linear_7_8)" stroke="black" stroke-width="0.3"/>
    <path d="M413.064 225.9V141.1H369.224L368.424 160.94C368.104 168.407 367.624 175.5 366.984 182.22C366.451 188.833 365.544 194.86 364.264 200.3C363.091 205.74 361.438 210.273 359.304 213.9C357.171 217.527 354.558 219.927 351.464 221.1L329.064 217.9C333.118 218.113 336.424 216.727 338.984 213.74C341.651 210.753 343.731 206.593 345.224 201.26C346.718 195.927 347.838 189.687 348.584 182.54C349.331 175.287 349.864 167.447 350.184 159.02L351.464 123.5H433.544V225.9H413.064ZM325.224 259.34L325.384 217.9H449.704V259.34H430.504V235.5H344.584V259.34H325.224ZM469.289 235.5V123.5H515.369C525.289 123.5 533.769 125.1 540.809 128.3C547.956 131.5 553.449 136.087 557.289 142.06C561.129 148.033 563.049 155.127 563.049 163.34C563.049 171.553 561.129 178.647 557.289 184.62C553.449 190.593 547.956 195.18 540.809 198.38C533.769 201.58 525.289 203.18 515.369 203.18H480.809L490.089 193.42V235.5H469.289ZM490.089 195.66L480.809 185.58H514.409C523.583 185.58 530.463 183.66 535.049 179.82C539.743 175.873 542.089 170.38 542.089 163.34C542.089 156.193 539.743 150.7 535.049 146.86C530.463 143.02 523.583 141.1 514.409 141.1H480.809L490.089 130.86V195.66ZM581.827 217.9C587.694 219.927 592.867 220.46 597.347 219.5C601.827 218.54 605.827 215.287 609.347 209.74L614.787 201.26L616.867 199.02L655.907 123.5H676.387L627.747 213.9C623.8 221.473 619.107 227.233 613.667 231.18C608.227 235.127 602.36 237.313 596.067 237.74C589.88 238.273 583.427 237.1 576.707 234.22L581.827 217.9ZM616.387 216.94L566.467 123.5H588.707L627.747 200.94L616.387 216.94ZM815.369 235.5L782.729 180.94L800.329 170.54L839.369 235.5H815.369ZM761.929 188.3V170.38H795.689V188.3H761.929ZM801.449 181.9L782.089 179.34L814.889 123.5H836.969L801.449 181.9ZM700.169 235.5H676.169L715.209 170.54L732.969 180.94L700.169 235.5ZM768.009 235.5H747.689V123.5H768.009V235.5ZM753.769 188.3H719.849V170.38H753.769V188.3ZM714.249 181.9L678.569 123.5H700.649L733.289 179.34L714.249 181.9ZM853.981 235.5V123.5H874.461V203.02L934.621 123.5H953.981V235.5H933.501V156.14L873.341 235.5H853.981ZM1064.1 123.5H1084.9V235.5H1064.1V123.5ZM1006.18 235.5H985.383V123.5H1006.18V235.5ZM1065.7 187.5H1004.42V169.74H1065.7V187.5ZM1102.08 235.5L1152.48 123.5H1172.96L1223.52 235.5H1201.76L1158.4 134.54H1166.72L1123.52 235.5H1102.08ZM1125.28 209.58L1130.88 193.26H1191.36L1196.96 209.58H1125.28Z"
          fill="black"/>
    <path d="M339.283 324.716C337.387 324.716 335.635 324.404 334.027 323.78C332.419 323.132 331.027 322.232 329.851 321.08C328.675 319.928 327.751 318.572 327.079 317.012C326.431 315.452 326.107 313.748 326.107 311.9C326.107 310.052 326.431 308.348 327.079 306.788C327.751 305.228 328.675 303.872 329.851 302.72C331.051 301.568 332.455 300.68 334.063 300.056C335.671 299.408 337.423 299.084 339.319 299.084C341.143 299.084 342.859 299.396 344.467 300.02C346.075 300.62 347.431 301.532 348.535 302.756L346.843 304.448C345.811 303.392 344.671 302.636 343.423 302.18C342.175 301.7 340.831 301.46 339.391 301.46C337.879 301.46 336.475 301.724 335.179 302.252C333.883 302.756 332.755 303.488 331.795 304.448C330.835 305.384 330.079 306.488 329.527 307.76C328.999 309.008 328.735 310.388 328.735 311.9C328.735 313.412 328.999 314.804 329.527 316.076C330.079 317.324 330.835 318.428 331.795 319.388C332.755 320.324 333.883 321.056 335.179 321.584C336.475 322.088 337.879 322.34 339.391 322.34C340.831 322.34 342.175 322.1 343.423 321.62C344.671 321.14 345.811 320.372 346.843 319.316L348.535 321.008C347.431 322.232 346.075 323.156 344.467 323.78C342.859 324.404 341.131 324.716 339.283 324.716ZM390.037 324.5V299.3H411.241V324.5H408.613V300.884L409.297 301.604H391.981L392.665 300.884V324.5H390.037ZM466.796 324.716C464.9 324.716 463.136 324.404 461.504 323.78C459.896 323.132 458.492 322.232 457.292 321.08C456.116 319.904 455.192 318.548 454.52 317.012C453.872 315.452 453.548 313.748 453.548 311.9C453.548 310.052 453.872 308.36 454.52 306.824C455.192 305.264 456.116 303.908 457.292 302.756C458.492 301.58 459.896 300.68 461.504 300.056C463.112 299.408 464.876 299.084 466.796 299.084C468.692 299.084 470.444 299.408 472.052 300.056C473.66 300.68 475.052 301.568 476.228 302.72C477.428 303.872 478.352 305.228 479 306.788C479.672 308.348 480.008 310.052 480.008 311.9C480.008 313.748 479.672 315.452 479 317.012C478.352 318.572 477.428 319.928 476.228 321.08C475.052 322.232 473.66 323.132 472.052 323.78C470.444 324.404 468.692 324.716 466.796 324.716ZM466.796 322.34C468.308 322.34 469.7 322.088 470.972 321.584C472.268 321.056 473.384 320.324 474.32 319.388C475.28 318.428 476.024 317.324 476.552 316.076C477.08 314.804 477.344 313.412 477.344 311.9C477.344 310.388 477.08 309.008 476.552 307.76C476.024 306.488 475.28 305.384 474.32 304.448C473.384 303.488 472.268 302.756 470.972 302.252C469.7 301.724 468.308 301.46 466.796 301.46C465.284 301.46 463.88 301.724 462.584 302.252C461.288 302.756 460.16 303.488 459.2 304.448C458.264 305.384 457.52 306.488 456.968 307.76C456.44 309.008 456.176 310.388 456.176 311.9C456.176 313.388 456.44 314.768 456.968 316.04C457.52 317.312 458.264 318.428 459.2 319.388C460.16 320.324 461.288 321.056 462.584 321.584C463.88 322.088 465.284 322.34 466.796 322.34ZM522.365 324.5V299.3H531.797C533.933 299.3 535.769 299.648 537.305 300.344C538.841 301.016 540.017 302 540.833 303.296C541.673 304.568 542.093 306.116 542.093 307.94C542.093 309.716 541.673 311.252 540.833 312.548C540.017 313.82 538.841 314.804 537.305 315.5C535.769 316.196 533.933 316.544 531.797 316.544H523.841L525.029 315.284V324.5H522.365ZM525.029 315.5L523.841 314.204H531.725C534.245 314.204 536.153 313.664 537.449 312.584C538.769 311.48 539.429 309.932 539.429 307.94C539.429 305.924 538.769 304.364 537.449 303.26C536.153 302.156 534.245 301.604 531.725 301.604H523.841L525.029 300.344V315.5ZM587.697 324.5V300.884L588.417 301.604H578.841V299.3H599.181V301.604H589.641L590.325 300.884V324.5H587.697ZM639.857 324.5V299.3H642.485V320.18L658.613 299.3H661.025V324.5H658.397V303.656L642.269 324.5H639.857ZM705.529 324.5V299.3H716.005C718.669 299.3 720.757 299.852 722.269 300.956C723.805 302.036 724.573 303.632 724.573 305.744C724.573 307.832 723.841 309.416 722.377 310.496C720.913 311.552 718.993 312.08 716.617 312.08L717.229 311.18C720.037 311.18 722.173 311.732 723.637 312.836C725.101 313.94 725.833 315.56 725.833 317.696C725.833 319.856 725.065 321.536 723.529 322.736C722.017 323.912 719.737 324.5 716.689 324.5H705.529ZM708.157 322.376H716.689C718.825 322.376 720.445 321.98 721.549 321.188C722.653 320.396 723.205 319.172 723.205 317.516C723.205 315.884 722.653 314.684 721.549 313.916C720.445 313.148 718.825 312.764 716.689 312.764H708.157V322.376ZM708.157 310.712H715.861C717.805 310.712 719.293 310.328 720.325 309.56C721.381 308.768 721.909 307.604 721.909 306.068C721.909 304.532 721.381 303.38 720.325 302.612C719.293 301.82 717.805 301.424 715.861 301.424H708.157V310.712ZM786.926 299.3H789.554V324.5H786.926V299.3ZM771.158 324.5H768.494V299.3H771.158V324.5ZM787.178 312.872H770.87V310.532H787.178V312.872ZM844.608 308.3C847.584 308.3 849.852 308.972 851.412 310.316C852.996 311.636 853.788 313.604 853.788 316.22C853.788 318.932 852.948 320.996 851.268 322.412C849.588 323.804 847.188 324.5 844.068 324.5H834.06V299.3H836.688V308.3H844.608ZM843.996 322.376C846.324 322.376 848.088 321.86 849.288 320.828C850.512 319.796 851.124 318.284 851.124 316.292C851.124 314.3 850.524 312.836 849.324 311.9C848.124 310.94 846.348 310.46 843.996 310.46H836.688V322.376H843.996ZM858.144 324.5V299.3H860.772V324.5H858.144ZM905.251 324.5V299.3H907.879V320.18L924.007 299.3H926.419V324.5H923.791V303.656L907.663 324.5H905.251ZM915.763 297.464C913.963 297.464 912.535 297.056 911.479 296.24C910.447 295.424 909.919 294.284 909.895 292.82H911.875C911.899 293.78 912.259 294.536 912.955 295.088C913.675 295.64 914.611 295.916 915.763 295.916C916.915 295.916 917.839 295.64 918.535 295.088C919.255 294.536 919.627 293.78 919.651 292.82H921.631C921.607 294.284 921.067 295.424 920.011 296.24C918.955 297.056 917.539 297.464 915.763 297.464ZM1033.59 324.5L1023.91 311.936L1026.07 310.64L1036.65 324.5H1033.59ZM1016.35 324.5V299.3H1018.94V324.5H1016.35ZM1018.15 312.944V310.604H1026.03V312.944H1018.15ZM1026.28 312.188L1023.83 311.756L1033.23 299.3H1036.11L1026.28 312.188ZM1075.4 324.716C1075.06 324.716 1074.74 324.692 1074.43 324.644C1074.12 324.62 1073.77 324.56 1073.38 324.464L1073.6 322.088C1074.01 322.184 1074.4 322.232 1074.79 322.232C1075.87 322.232 1076.73 321.812 1077.38 320.972C1078.05 320.108 1078.56 318.788 1078.89 317.012C1079.23 315.212 1079.44 312.908 1079.54 310.1L1079.9 299.3H1097V324.5H1094.37V300.884L1095.06 301.604H1081.59L1082.24 300.848L1081.92 310.028C1081.82 312.548 1081.64 314.732 1081.38 316.58C1081.11 318.404 1080.73 319.928 1080.22 321.152C1079.72 322.352 1079.07 323.252 1078.28 323.852C1077.49 324.428 1076.53 324.716 1075.4 324.716ZM1141.07 322.016C1142.29 322.496 1143.45 322.616 1144.53 322.376C1145.61 322.112 1146.6 321.26 1147.51 319.82L1148.74 317.876L1148.99 317.552L1158.64 299.3H1161.3L1149.85 320.396C1149.09 321.86 1148.17 322.952 1147.12 323.672C1146.09 324.392 1144.98 324.776 1143.81 324.824C1142.65 324.872 1141.49 324.656 1140.31 324.176L1141.07 322.016ZM1148.92 319.964L1138.01 299.3H1140.85L1150.36 317.768L1148.92 319.964ZM1201.44 324.5V299.3H1219.87V301.568H1204.07V309.812H1212.31C1215.29 309.812 1217.55 310.424 1219.08 311.648C1220.64 312.848 1221.42 314.624 1221.42 316.976C1221.42 319.4 1220.58 321.26 1218.9 322.556C1217.25 323.852 1214.86 324.5 1211.74 324.5H1201.44ZM1204.07 322.376H1211.7C1214.03 322.376 1215.78 321.932 1216.96 321.044C1218.16 320.132 1218.76 318.812 1218.76 317.084C1218.76 313.652 1216.41 311.936 1211.7 311.936H1204.07V322.376Z"
          fill="black"/>
    <defs>
        <linearGradient id="paint0_linear_7_8" x1="178.843" y1="404.838" x2="178.843" y2="3.83066"
                        gradientUnits="userSpaceOnUse">
            <stop stop-color="#FF2520"/>
            <stop offset="0.138048" stop-color="#FF471F"/>
            <stop offset="0.232086" stop-color="#FF591D"/>
            <stop offset="0.311277" stop-color="#FF7307"/>
            <stop offset="0.469658" stop-color="#FF8A00"/>
            <stop offset="0.608241" stop-color="#FF9F00"/>
            <stop offset="0.746825" stop-color="#FFAD1A"/>
        </linearGradient>
        <linearGradient id="paint1_linear_7_8" x1="63.3283" y1="360.899" x2="63.3283" y2="145.712"
                        gradientUnits="userSpaceOnUse">
            <stop stop-color="#FF2520"/>
            <stop offset="0.138048" stop-color="#FF471F"/>
            <stop offset="0.232086" stop-color="#FF591D"/>
            <stop offset="0.311277" stop-color="#FF7307"/>
            <stop offset="0.469658" stop-color="#FF8A00"/>
            <stop offset="0.608241" stop-color="#FF9F00"/>
            <stop offset="0.746825" stop-color="#FFAD1A"/>
        </linearGradient>
        <linearGradient id="paint2_linear_7_8" x1="255.771" y1="306.492" x2="255.771" y2="190.86"
                        gradientUnits="userSpaceOnUse">
            <stop stop-color="#FF2520"/>
            <stop offset="0.138048" stop-color="#FF471F"/>
            <stop offset="0.232086" stop-color="#FF591D"/>
            <stop offset="0.311277" stop-color="#FF7307"/>
            <stop offset="0.469658" stop-color="#FF8A00"/>
            <stop offset="0.608241" stop-color="#FF9F00"/>
            <stop offset="0.746825" stop-color="#FFAD1A"/>
        </linearGradient>
    </defs>
</svg>
